<?xml version="1.0" standalone="no"?>
<!DOCTYPE svg PUBLIC "-//W3C//DTD SVG 20010904//EN"
 "http://www.w3.org/TR/2001/REC-SVG-20010904/DTD/svg10.dtd">
<svg version="1.0" xmlns="http://www.w3.org/2000/svg"
 width="256.000000pt" height="256.000000pt" viewBox="0 0 256.000000 256.000000"
 preserveAspectRatio="xMidYMid meet">
<metadata>
Created by potrace 1.11, written by Peter Selinger 2001-2013
</metadata>
<g transform="translate(0.000000,256.000000) scale(0.100000,-0.100000)"
fill="#000000" stroke="none">
<path d="M500 1245 l0 -715 145 0 145 0 2 502 3 503 175 -502 175 -503 121 0
122 0 60 173 c33 94 111 320 173 502 l114 329 3 -502 2 -502 150 0 150 0 0
715 0 715 -223 0 -223 0 -153 -477 c-85 -263 -157 -484 -161 -491 -4 -8 -76
191 -172 475 l-166 488 -221 3 -221 2 0 -715z"/>
</g>
</svg>
